<svg version="1.2" xmlns="http://www.w3.org/2000/svg" viewBox="0 0 36 35" width="36" height="35">
	<title>Instagram-footer-svg</title>
	<style>
		.s0 { fill: #f53838 } 
		.s1 { fill: #ffffff } 
	</style>
	<g id="Layer">
		<path id="Layer" class="s0" d="m18 34.2c-9.3 0-16.8-7.5-16.8-16.8 0-9.3 7.5-16.8 16.8-16.8 9.3 0 16.8 7.5 16.8 16.8 0 9.3-7.5 16.8-16.8 16.8z"/>
	</g>
	<path id="Layer" fill-rule="evenodd" class="s1" d="m29.9 5.5c3.1 3.2 4.9 7.4 4.9 11.9 0 4.4-1.8 8.7-4.9 11.9-3.2 3.1-7.4 4.9-11.9 4.9-4.5 0-8.7-1.8-11.9-4.9-3.1-3.2-4.9-7.5-4.9-11.9 0-4.5 1.8-8.7 4.9-11.9 3.2-3.2 7.4-4.9 11.9-4.9 4.5 0 8.7 1.7 11.9 4.9zm-3.1 5.1q-0.1-0.4-0.2-0.8-0.1-0.3-0.4-0.6-0.3-0.3-0.7-0.4-0.3-0.2-0.7-0.2h-13.6q-0.4 0-0.7 0.2-0.4 0.1-0.7 0.4-0.3 0.3-0.4 0.6-0.1 0.4-0.1 0.8v13.6q0 0.4 0.1 0.7 0.1 0.4 0.4 0.7 0.3 0.2 0.7 0.4 0.3 0.1 0.7 0.1h13.6q0.4 0 0.7-0.1 0.4-0.2 0.7-0.4 0.3-0.3 0.4-0.7 0.1-0.3 0.2-0.7c0 0 0-13.6 0-13.6zm-4.8 3.1q-0.1-0.1-0.2-0.1 0-0.1-0.1-0.2 0-0.1 0-0.2v-2.1q0-0.1 0-0.2 0.1-0.1 0.1-0.2 0.1-0.1 0.2-0.1 0.1 0 0.2 0h2.1q0.1 0 0.2 0 0.1 0 0.2 0.1 0 0.1 0.1 0.2 0 0.1 0 0.2v2.1q0 0.1 0 0.2-0.1 0.1-0.1 0.2-0.1 0-0.2 0.1-0.1 0-0.2 0h-2.1q-0.1 0-0.2 0zm1.2 2.8h1.8v7q0 0.2-0.1 0.3 0 0.2-0.2 0.3-0.1 0.1-0.2 0.2-0.2 0.1-0.4 0.1h-12.2c-0.5 0-0.9-0.4-0.9-0.9v-7h1.8q0 0.4 0 0.9c0 1.4 0.5 2.7 1.5 3.7 1 1 2.3 1.5 3.7 1.5 1.4 0 2.7-0.5 3.7-1.5 1-1 1.6-2.3 1.6-3.7q-0.1-0.5-0.1-0.9zm-8.1 2.8c-0.7-0.9-0.8-2.2-0.3-3.3 0.4-1 1.4-1.8 2.5-2.1 1.2-0.2 2.3 0.2 3.2 1 0.5 0.5 0.8 1.1 0.9 1.8 0.2 0.7 0.1 1.4-0.2 2-0.2 0.7-0.7 1.2-1.3 1.6-0.5 0.4-1.2 0.6-1.9 0.6-1.2 0-2.3-0.6-2.9-1.6z"/>
</svg>