<svg version="1.2" xmlns="http://www.w3.org/2000/svg" viewBox="0 0 35 35" width="35" height="35">
	<title>Twitter-footer-svg</title>
	<style>
		.s0 { fill: #f53838 } 
		.s1 { fill: #ffffff } 
	</style>
	<g id="Layer">
		<path id="Layer" class="s0" d="m17.4 34.2c-9.3 0-16.8-7.5-16.8-16.8 0-9.3 7.5-16.8 16.8-16.8 9.3 0 16.8 7.5 16.8 16.8 0 9.3-7.5 16.8-16.8 16.8z"/>
	</g>
	<path id="Layer" fill-rule="evenodd" class="s1" d="m34.2 17.4c0 9.3-7.5 16.8-16.8 16.8-9.3 0-16.8-7.5-16.8-16.8 0-9.3 7.5-16.8 16.8-16.8 9.3 0 16.8 7.5 16.8 16.8zm-9.5-3.4q0.2-0.2 0.4-0.4 0.2-0.3 0.4-0.5 0.2-0.2 0.4-0.5-0.2 0.1-0.5 0.2-0.2 0.1-0.4 0.2-0.3 0-0.5 0.1-0.3 0-0.5 0.1 0.2-0.2 0.5-0.4 0.2-0.2 0.4-0.4 0.2-0.3 0.3-0.5 0.1-0.3 0.2-0.6-0.2 0.2-0.5 0.3-0.2 0.1-0.5 0.2-0.2 0.1-0.5 0.2-0.3 0.1-0.6 0.1c-0.5-0.5-1.1-0.9-1.8-1-0.8-0.1-1.5 0-2.1 0.4-0.7 0.3-1.2 0.9-1.5 1.5-0.3 0.7-0.4 1.4-0.2 2.1q-1 0-1.9-0.3-1-0.2-1.9-0.7-0.9-0.4-1.6-1-0.8-0.7-1.4-1.4-0.3 0.5-0.4 1.2-0.1 0.6 0 1.2 0.2 0.6 0.5 1.1 0.4 0.6 0.9 0.9-0.2 0-0.4 0-0.2-0.1-0.4-0.1-0.2-0.1-0.3-0.1-0.2-0.1-0.4-0.2 0 0.6 0.2 1.1 0.2 0.6 0.6 1 0.3 0.5 0.8 0.8 0.5 0.3 1.1 0.4-0.2 0-0.4 0.1-0.2 0-0.4 0-0.2 0-0.4 0-0.1 0-0.3-0.1 0.1 0.5 0.4 0.9 0.3 0.5 0.7 0.8 0.5 0.3 0.9 0.4 0.5 0.2 1.1 0.2c-1.2 0.9-2.6 1.4-4.2 1.4q-0.1 0-0.2 0 0 0-0.1 0-0.1 0-0.2 0-0.1 0-0.2 0 0.5 0.4 1.1 0.6 0.6 0.3 1.3 0.5 0.6 0.2 1.3 0.3 0.7 0.1 1.3 0.1c6.1 0 9.4-5.1 9.4-9.4q0-0.2 0-0.5 0.3-0.1 0.5-0.3z"/>
</svg>